<svg width="32" height="32" viewBox="0 0 32 32" fill="none" xmlns="http://www.w3.org/2000/svg">
<path d="M1.33301 3.33337H3.98725C4.46564 3.33337 4.70483 3.33337 4.89929 3.42011C5.07071 3.49658 5.21716 3.61975 5.32186 3.77554C5.44064 3.95226 5.48162 4.18791 5.56359 4.65923L6.1446 8.00004M6.1446 8.00004L7.4914 15.7441C7.67058 16.7744 7.76017 17.2896 8.0255 17.6607C8.25913 17.9874 8.58573 18.2362 8.96278 18.3748C9.391 18.5321 9.91144 18.4817 10.9523 18.381L25.7746 16.9466C26.7959 16.8477 27.3066 16.7983 27.6925 16.5676C28.0324 16.3644 28.3044 16.0649 28.4739 15.7069C28.6663 15.3006 28.6663 14.7875 28.6663 13.7614V11.7734C28.6663 10.6829 28.6663 10.1376 28.4563 9.71626C28.2716 9.34548 27.9762 9.04124 27.611 8.84556C27.1961 8.62319 26.6511 8.60705 25.561 8.57479L6.1446 8.00004Z" stroke="#333333" stroke-width="1.5" stroke-linecap="round" stroke-linejoin="round"/>
<circle cx="11.3337" cy="25.3333" r="2.66667" stroke="#333333" stroke-width="1.5"/>
<ellipse cx="23.9997" cy="25.3333" rx="2.66667" ry="2.66667" stroke="#333333" stroke-width="1.5"/>
</svg>
