<svg width="48" height="52" viewBox="0 0 48 52" fill="none" xmlns="http://www.w3.org/2000/svg">
<path d="M34.6094 25.0857C38.0231 26.3013 43.2218 28.7026 45.8995 31.9797C43.1686 28.616 38.8457 22.7778 36.6076 22.538L34.6094 25.0857Z" fill="#3790D7"/>
<path d="M5.0378 8.3505C4.53826 7.95085 2.58979 8.55033 2.04042 9.1498C0.899939 10.3943 3.44065 17.3926 4.9939 20.9395L2.68964 17.8921C1.99026 16.7765 0.481607 13.6758 0.0419911 10.1989C-0.397624 6.72192 2.72298 5.48633 4.33823 5.30316C4.35488 5.51964 4.3782 5.63288 4.33823 4.35399C4.28828 2.75538 4.88775 1.25669 7.38557 1.15678C9.38382 1.07685 10.9158 3.15503 11.432 4.20412C11.5819 3.6546 12.0815 2.54093 14.1297 2.50561C16.4476 2.46565 17.8597 4.62043 18.276 5.70282L16.2778 5.9526C16.0114 5.26986 15.1488 3.94435 13.8299 4.10421C12.5111 4.26407 12.4145 5.40308 12.5311 5.9526V9.64936L11.1323 7.35137C9.6336 4.05426 9.13404 3.25496 7.93509 3.25496C6.73614 3.25496 6.53631 4.0043 6.38644 5.10334C6.26655 5.98257 8.16831 11.1647 9.13419 13.6459C7.98519 12.9964 7.98519 12.9465 7.33576 12.0972C6.73494 11.3115 5.53733 8.75015 5.0378 8.3505Z" fill="#3790D7"/>
<path d="M42.0886 43.6849C45.3789 45.2202 47.2337 48.9811 47.8765 51.034C47.9084 51.1358 47.7787 51.2035 47.7076 51.1239C44.4976 47.5335 40.3859 47.0061 39.7073 46.6668C39.0079 46.3171 30.865 47.0165 30.2655 47.0165C29.6661 47.0165 27.3181 46.8167 26.1192 46.6668C24.9202 46.517 20.1244 45.1182 17.0771 43.02C14.0297 40.9219 12.581 39.1234 12.3312 38.7737C12.0814 38.424 6.63621 32.4792 6.28651 31.9797C5.93682 31.4801 4.68791 30.2812 3.38905 29.1821C2.47071 28.4051 1.43271 28.1171 0.881992 28.0491C0.801807 28.0392 0.759192 27.9438 0.809317 27.8804C3.72783 24.191 8.81517 24.3766 11.0823 27.3337C13.3803 30.3311 15.3786 30.7807 17.3269 31.0805C19.2751 31.3802 24.7703 29.6317 27.3181 29.6317C29.8659 29.6317 30.6652 30.431 33.0131 31.2803C34.8898 31.9591 38.7178 35.8525 40.402 37.7195C40.0189 37.3066 35.5061 35.1246 34.3619 34.5774C33.213 34.0279 30.915 33.3285 27.7677 33.1786C24.6205 33.0288 23.1717 35.3268 17.3269 34.2777C11.482 33.2286 9.18398 27.034 6.63621 27.034C5.78347 26.9969 4.60684 27.5876 4.01572 27.9524C3.95478 27.99 3.9552 28.0775 4.0147 28.1174C5.8841 29.3693 6.93819 30.202 7.48546 30.6808C8.28476 31.3802 13.5801 36.5257 14.7291 37.5248C15.8781 38.524 18.2261 40.0726 21.1735 41.4714C24.1209 42.8702 28.7169 43.1699 29.9158 43.3198C31.1101 43.469 39.0956 42.8252 42.0213 43.6597C42.0448 43.6664 42.0665 43.6746 42.0886 43.6849Z" fill="#3790D7"/>
<path d="M38.0061 9.24956C42.9218 12.4867 35.6914 23.6869 31.4618 28.8824C33.4434 27.4337 37.6739 24.2037 38.6556 23.1874C42.9019 18.7913 44.2507 16.0437 45.05 14.0953C45.8493 12.147 45.8993 9.94896 45.8993 9.24956C45.8993 8.55016 45.4497 0.307418 37.6065 0.00767976C31.332 -0.23211 27.7651 5.20312 26.766 7.95071C22.8194 3.25482 18.5254 3.40468 17.9736 3.40469C16.1253 3.40471 12.8282 4.20398 11.1297 7.35123C9.43117 10.4985 8.88159 15.8438 12.3785 20.7895C15.1761 24.746 21.0043 27.8333 23.5687 28.8824L17.9736 23.2873C15.5591 20.5064 11.7191 13.9455 15.6756 9.94896C19.6322 5.95246 25.2173 11.048 27.5153 14.0953C28.964 11.1312 33.0904 6.01239 38.0061 9.24956Z" fill="#FFC700"/>
<path d="M14.9766 14.3952C14.9766 18.4317 19.3061 23.0043 21.4709 24.7861C16.2255 19.241 16.4253 16.943 16.0256 14.645C15.7059 12.8066 17.0248 10.8816 17.7242 10.1489C16.8083 10.7651 14.9766 12.4769 14.9766 14.3952Z" fill="#FFC700"/>
</svg>
