<svg display="none" xmlns="http://www.w3.org/2000/svg">

            <symbol id="facebook" viewBox="0 0 24 24">
            <g>
            <path d="M24 12C24 18.6274 18.6274 24 12 24C5.37258 24 0 18.6274 0 12C0 5.37258 5.37258 0 12 0C18.6274 0 24 5.37258 24 12Z" />
            <path d="M24 12C24 18.6274 18.6274 24 12 24C5.37258 24 0 18.6274 0 12C0 5.37258 5.37258 0 12 0C18.6274 0 24 5.37258 24 12Z" />
            <path d="M10.08 15.6V23.76C10.08 23.8925 10.1875 24 10.32 24H13.68C13.8125 24 13.92 23.8925 13.92 23.76V15.6C13.92 15.4675 14.0275 15.36 14.16 15.36H16.56C16.6925 15.36 16.8 15.2525 16.8 15.12V12.24C16.8 12.1075 16.6925 12 16.56 12H14.16C14.0275 12 13.92 11.8927 13.92 11.7602V9.6C13.92 8.64 15.12 8.16 15.6 8.16H17.04C17.1725 8.16 17.28 8.05255 17.28 7.92V5.04C17.28 4.90745 17.1726 4.8 17.04 4.8H13.92C11.616 4.8 10.08 7.2 10.08 8.64V11.76C10.08 11.8925 9.97255 12 9.84 12H7.44C7.30745 12 7.2 12.1075 7.2 12.24V15.12C7.2 15.2525 7.30745 15.36 7.44 15.36H9.84C9.97255 15.36 10.08 15.4675 10.08 15.6Z" fill="white"/>
            </g>
            </symbol>

            <symbol id="instagram" viewBox="0 0 24 24">
                <g>
                <rect width="24" height="24" rx="12"/>
                <path d="M9.5004 12C9.5004 10.6193 10.6193 9.4998 12 9.4998C13.3807 9.4998 14.5002 10.6193 14.5002 12C14.5002 13.3807 13.3807 14.5002 12 14.5002C10.6193 14.5002 9.5004 13.3807 9.5004 12ZM8.14884 12C8.14884 14.127 9.873 15.8512 12 15.8512C14.127 15.8512 15.8512 14.127 15.8512 12C15.8512 9.873 14.127 8.14884 12 8.14884C9.873 8.14884 8.14884 9.873 8.14884 12ZM15.1036 7.99614C15.1035 8.17414 15.1563 8.34817 15.2551 8.49621C15.3539 8.64426 15.4944 8.75967 15.6589 8.82785C15.8233 8.89604 16.0043 8.91393 16.1788 8.87928C16.3534 8.84462 16.5138 8.75897 16.6398 8.63315C16.7657 8.50733 16.8515 8.347 16.8863 8.17243C16.9211 7.99787 16.9033 7.8169 16.8352 7.65242C16.7672 7.48794 16.6519 7.34733 16.5039 7.24838C16.356 7.14943 16.182 7.09657 16.004 7.0965H16.0036C15.765 7.09661 15.5362 7.19142 15.3675 7.3601C15.1987 7.52878 15.1038 7.75754 15.1036 7.99614ZM8.97 18.1048C8.23878 18.0715 7.84134 17.9497 7.57722 17.8468C7.22706 17.7105 6.97722 17.5481 6.71454 17.2858C6.45186 17.0235 6.28926 16.7739 6.15354 16.4237C6.05058 16.1597 5.92878 15.7622 5.89554 15.031C5.85918 14.2404 5.85192 14.0029 5.85192 12.0001C5.85192 9.9972 5.85978 9.76038 5.89554 8.96916C5.92884 8.23794 6.05154 7.84116 6.15354 7.57638C6.28986 7.22622 6.45222 6.97638 6.71454 6.7137C6.97686 6.45102 7.22646 6.28842 7.57722 6.1527C7.84122 6.04974 8.23878 5.92794 8.97 5.8947C9.76056 5.85834 9.99804 5.85108 12 5.85108C14.002 5.85108 14.2397 5.85894 15.0309 5.8947C15.7621 5.928 16.1589 6.0507 16.4237 6.1527C16.7738 6.28842 17.0237 6.45138 17.2864 6.7137C17.549 6.97602 17.711 7.22622 17.8474 7.57638C17.9503 7.84038 18.0721 8.23794 18.1054 8.96916C18.1417 9.76038 18.149 9.9972 18.149 12.0001C18.149 14.0029 18.1417 14.2397 18.1054 15.031C18.0721 15.7622 17.9497 16.1596 17.8474 16.4237C17.711 16.7739 17.5487 17.0237 17.2864 17.2858C17.024 17.5479 16.7738 17.7105 16.4237 17.8468C16.1597 17.9498 15.7621 18.0716 15.0309 18.1048C14.2403 18.1412 14.0029 18.1484 12 18.1484C9.99714 18.1484 9.76032 18.1412 8.97 18.1048ZM8.9079 4.54542C8.10948 4.58178 7.5639 4.70838 7.08744 4.89378C6.594 5.08524 6.17628 5.3421 5.75886 5.75886C5.34144 6.17562 5.08524 6.594 4.89378 7.08744C4.70838 7.5642 4.58178 8.10948 4.54542 8.9079C4.50846 9.70758 4.5 9.96324 4.5 12C4.5 14.0368 4.50846 14.2924 4.54542 15.0921C4.58178 15.8906 4.70838 16.4358 4.89378 16.9126C5.08524 17.4057 5.3415 17.8246 5.75886 18.2411C6.17622 18.6577 6.594 18.9142 7.08744 19.1062C7.5648 19.2916 8.10948 19.4182 8.9079 19.4546C9.708 19.4909 9.96324 19.5 12 19.5C14.0368 19.5 14.2924 19.4915 15.0921 19.4546C15.8906 19.4182 16.4358 19.2916 16.9126 19.1062C17.4057 18.9142 17.8237 18.6579 18.2411 18.2411C18.6586 17.8244 18.9142 17.4057 19.1062 16.9126C19.2916 16.4358 19.4188 15.8905 19.4546 15.0921C19.4909 14.2918 19.4994 14.0368 19.4994 12C19.4994 9.96324 19.4909 9.70758 19.4546 8.9079C19.4182 8.10942 19.2916 7.5639 19.1062 7.08744C18.9142 6.5943 18.6579 6.17628 18.2411 5.75886C17.8244 5.34144 17.4057 5.08524 16.9132 4.89378C16.4358 4.70838 15.8905 4.58118 15.0927 4.54542C14.293 4.50906 14.0374 4.5 12.0006 4.5C9.96384 4.5 9.708 4.50846 8.9079 4.54542Z" fill="white"/>
                </g>
            </symbol>

           <symbol id="viber" viewBox="0 0 24 24">
                <g>
                    <rect width="24" height="24" rx="12" />
                    <path d="M17.877 6.09227C17.48 5.72734 15.8731 4.55891 12.291 4.54291C12.291 4.54291 8.06861 4.28681 6.01025 6.1755C4.86424 7.32152 4.46089 8.99573 4.41927 11.0765C4.37766 13.1541 4.32324 17.0499 8.07821 18.1063H8.08141L8.07821 19.7165C8.07821 19.7165 8.0558 20.3695 8.48476 20.5007C9.00335 20.6608 9.31066 20.1646 9.80684 19.63C10.0789 19.3355 10.4535 18.9066 10.7384 18.5768C13.3057 18.7913 15.2808 18.2983 15.5049 18.2247C16.0235 18.055 18.959 17.6805 19.436 13.7847C19.9289 9.77682 19.1959 7.23829 17.877 6.09227ZM18.3124 13.503C17.909 16.7554 15.5305 16.9602 15.092 17.1011C14.9063 17.1619 13.1713 17.5941 10.9881 17.45C10.9881 17.45 9.36188 19.4123 8.8561 19.9213C8.77607 20.0014 8.68323 20.0334 8.62241 20.0174C8.53598 19.995 8.51037 19.8925 8.51357 19.7421C8.51357 19.5244 8.52637 17.0627 8.52637 17.0627C8.52317 17.0627 8.52317 17.0627 8.52637 17.0627C5.34761 16.1824 5.53328 12.8659 5.56849 11.1309C5.60371 9.39588 5.93023 7.97136 6.90018 7.01421C8.63842 5.43923 12.2269 5.67292 12.2269 5.67292C15.2552 5.68572 16.7054 6.59806 17.0415 6.90217C18.1587 7.86252 18.7285 10.1514 18.3124 13.503Z" fill="white"/>
                    <path d="M13.7665 11.1917C13.6609 11.1917 13.5713 11.1085 13.5649 10.9997C13.5297 10.3114 13.2063 9.9753 12.5469 9.94009C12.4349 9.93368 12.3484 9.83765 12.3548 9.72561C12.3612 9.61357 12.4573 9.52713 12.5693 9.53354C13.44 9.58155 13.9266 10.0809 13.9714 10.9773C13.9778 11.0893 13.8914 11.1853 13.7793 11.1885C13.7729 11.1917 13.7697 11.1917 13.7665 11.1917Z" fill="white"/>
                    <path d="M14.8038 11.5375H14.8006C14.6886 11.5343 14.599 11.4415 14.6022 11.3294C14.6182 10.638 14.4197 10.0778 13.9971 9.61681C13.5778 9.15584 12.9984 8.90615 12.2333 8.85173C12.1213 8.84213 12.038 8.7461 12.0476 8.63405C12.0572 8.52201 12.1533 8.43878 12.2653 8.44839C13.1296 8.51241 13.8115 8.81332 14.2981 9.34471C14.7878 9.87931 15.0247 10.5484 15.0087 11.339C15.0055 11.4511 14.9127 11.5375 14.8038 11.5375Z" fill="white"/>
                    <path d="M15.867 11.9536C15.7549 11.9536 15.6653 11.864 15.6653 11.752C15.6557 10.5131 15.3004 9.56876 14.5769 8.8613C13.863 8.16345 12.9571 7.80812 11.8911 7.79852C11.7791 7.79852 11.6895 7.70568 11.6895 7.59364C11.6895 7.4816 11.7823 7.39197 11.8911 7.39197C13.066 7.40157 14.0647 7.79532 14.8554 8.57C15.6493 9.34468 16.0559 10.4139 16.0687 11.7456C16.0719 11.8608 15.9822 11.9536 15.867 11.9536C15.8702 11.9536 15.8702 11.9536 15.867 11.9536Z" fill="white"/>
                    <path d="M12.5953 13.6982C12.5953 13.6982 12.8802 13.7238 13.0339 13.535L13.3316 13.1604C13.4756 12.9748 13.8246 12.8563 14.1639 13.0452C14.3528 13.1508 14.6953 13.3621 14.9066 13.519C15.1339 13.6854 15.5948 14.0696 15.598 14.0728C15.8189 14.2584 15.8701 14.5305 15.7197 14.8218C15.7197 14.8218 15.7197 14.825 15.7197 14.8282C15.566 15.1003 15.3579 15.3564 15.0986 15.5933C15.0954 15.5933 15.0954 15.5965 15.0922 15.5965C14.8778 15.7758 14.6665 15.8782 14.4616 15.9006C14.436 15.907 14.4072 15.907 14.3688 15.907C14.2791 15.907 14.1895 15.8942 14.0999 15.8654L14.0935 15.8558C13.7734 15.7662 13.242 15.5421 12.3584 15.0523C11.7822 14.7354 11.3053 14.4121 10.8987 14.0888C10.6842 13.9191 10.4665 13.7302 10.2425 13.5062C10.2361 13.4998 10.2265 13.4901 10.2201 13.4837C10.2137 13.4773 10.2041 13.4677 10.1976 13.4613C10.1912 13.4549 10.1816 13.4453 10.1752 13.4389C10.1688 13.4325 10.1592 13.4229 10.1528 13.4165C9.93195 13.1924 9.73988 12.9748 9.57022 12.7603C9.2469 12.3569 8.92358 11.8768 8.60667 11.3005C8.11689 10.4138 7.8928 9.88243 7.80317 9.56551L7.79357 9.55911C7.76476 9.46948 7.75195 9.37984 7.75195 9.29021C7.75195 9.2518 7.75195 9.22299 7.75836 9.19738C7.78396 8.9893 7.8864 8.78122 8.06247 8.56675C8.06247 8.56354 8.06567 8.56354 8.06567 8.56034C8.30255 8.29785 8.55865 8.09297 8.83075 7.93932C8.83075 7.93932 8.83395 7.93932 8.83715 7.93932C9.12526 7.78886 9.39736 7.84008 9.58622 8.06096C9.58622 8.06096 9.97357 8.52513 10.14 8.75241C10.2969 8.96689 10.5082 9.30622 10.6138 9.49509C10.8027 9.83441 10.6842 10.1833 10.4986 10.3274L10.124 10.6251C9.93515 10.7788 9.96076 11.0637 9.96076 11.0637C9.96076 11.0637 10.5146 13.17 12.5953 13.6982Z" fill="white"/>
                </g>
           </symbol>

           <symbol id="telegram" viewBox="0 0 24 24">
                <g>
                    <rect width="24" height="24" rx="12" />
                    <rect width="24" height="24" rx="12" />
                    <path d="M5.39368 11.7355C8.88334 10.1831 11.2103 9.15973 12.3746 8.66527C15.699 7.2535 16.3897 7.00826 16.84 7.00008C16.939 6.99838 17.1604 7.02344 17.3038 7.14226C17.4249 7.2426 17.4583 7.37813 17.4742 7.47325C17.4901 7.56838 17.51 7.78508 17.4942 7.9544C17.3141 9.88701 16.5346 14.5769 16.138 16.7415C15.9702 17.6574 15.6398 17.9645 15.3199 17.9945C14.6248 18.0599 14.0969 17.5255 13.4236 17.0749C12.3701 16.3697 11.7749 15.9308 10.7522 15.2427C9.57034 14.4475 10.3365 14.0104 11.01 13.2962C11.1863 13.1092 14.2492 10.2648 14.3084 10.0067C14.3159 9.97446 14.3227 9.85417 14.2527 9.79065C14.1828 9.72713 14.0794 9.74885 14.0049 9.76612C13.8992 9.79061 12.2162 10.9264 8.95566 13.1736C8.47792 13.5086 8.04521 13.6718 7.6575 13.6632C7.23009 13.6538 6.40793 13.4165 5.79673 13.2136C5.04708 12.9648 4.45127 12.8333 4.50315 12.4107C4.53017 12.1906 4.82702 11.9656 5.39368 11.7355Z" fill="white"/>
                </g>
           </symbol>

           <symbol id="cart"  viewBox="0 0 32 32">
                <path d="M1.33301 3.33337H3.98725C4.46564 3.33337 4.70483 3.33337 4.89929 3.42011C5.07071 3.49658 5.21716 3.61975 5.32186 3.77554C5.44064 3.95226 5.48162 4.18791 5.56359 4.65923L6.1446 8.00004M6.1446 8.00004L7.4914 15.7441C7.67058 16.7744 7.76017 17.2896 8.0255 17.6607C8.25913 17.9874 8.58573 18.2362 8.96278 18.3748C9.391 18.5321 9.91144 18.4817 10.9523 18.381L25.7746 16.9466C26.7959 16.8477 27.3066 16.7983 27.6925 16.5676C28.0324 16.3644 28.3044 16.0649 28.4739 15.7069C28.6663 15.3006 28.6663 14.7875 28.6663 13.7614V11.7734C28.6663 10.6829 28.6663 10.1376 28.4563 9.71626C28.2716 9.34548 27.9762 9.04124 27.611 8.84556C27.1961 8.62319 26.6511 8.60705 25.561 8.57479L6.1446 8.00004Z" stroke="#333333" stroke-width="1.5" stroke-linecap="round" stroke-linejoin="round"/>
                <circle cx="11.3337" cy="25.3333" r="2.66667" stroke="#333333" stroke-width="1.5"/>
                <ellipse cx="23.9997" cy="25.3333" rx="2.66667" ry="2.66667" stroke="#333333" stroke-width="1.5"/>
           </symbol>

           <symbol id="corzina"  viewBox="0 0 32 32">
                <g>
                    <path d="M1.33301 3.33337H3.98725C4.46564 3.33337 4.70483 3.33337 4.89929 3.42011C5.07071 3.49658 5.21716 3.61975 5.32186 3.77554C5.44064 3.95226 5.48162 4.18791 5.56359 4.65923L6.1446 8.00004M6.1446 8.00004L7.4914 15.7441C7.67058 16.7744 7.76017 17.2896 8.0255 17.6607C8.25913 17.9874 8.58573 18.2362 8.96278 18.3748C9.391 18.5321 9.91144 18.4817 10.9523 18.381L25.7746 16.9466C26.7959 16.8477 27.3066 16.7983 27.6925 16.5676C28.0324 16.3644 28.3044 16.0649 28.4739 15.7069C28.6663 15.3006 28.6663 14.7875 28.6663 13.7614V11.7734C28.6663 10.6829 28.6663 10.1376 28.4563 9.71626C28.2716 9.34548 27.9762 9.04124 27.611 8.84556C27.1961 8.62319 26.6511 8.60705 25.561 8.57479L6.1446 8.00004Z" stroke="#333333" stroke-width="1.5" stroke-linecap="round" stroke-linejoin="round"/>
                    <circle cx="11.3337" cy="25.3333" r="2.66667" stroke="#333333" stroke-width="1.5"/>
                    <ellipse cx="23.9997" cy="25.3333" rx="2.66667" ry="2.66667" stroke="#333333" stroke-width="1.5"/>
                </g>
           </symbol>
        </svg>