<svg width="20" height="20" viewBox="0 0 20 20" fill="none" xmlns="http://www.w3.org/2000/svg">
<path fill-rule="evenodd" clip-rule="evenodd" d="M10.9747 18.5415C13.0904 17.0979 17.9173 13.3051 17.9173 8.75016C17.9173 4.37791 14.3729 0.833496 10.0007 0.833496C5.6284 0.833496 2.08398 4.37791 2.08398 8.75016C2.08398 13.3051 6.9109 17.0979 9.02661 18.5415C9.61824 18.9452 10.3831 18.9452 10.9747 18.5415ZM10 11.25C11.3807 11.25 12.5 10.1307 12.5 8.75C12.5 7.36929 11.3807 6.25 10 6.25C8.61929 6.25 7.5 7.36929 7.5 8.75C7.5 10.1307 8.61929 11.25 10 11.25Z" fill="#333333"/>
</svg>
