<svg width="16" height="16" viewBox="0 0 16 16" fill="none" xmlns="http://www.w3.org/2000/svg">
<path d="M11.4314 11.0671L10.9159 11.8403C10.813 11.9947 10.6769 12.1264 10.4976 12.1738C9.91011 12.329 8.35055 12.3991 5.97615 10.0247C3.60176 7.65029 3.67184 6.0907 3.82706 5.50326C3.87445 5.32393 4.00614 5.18784 4.16048 5.08495L4.93373 4.56945C5.50943 4.18565 5.665 3.40782 5.2812 2.83212L3.82079 0.641504C3.48579 0.139007 2.83998 -0.0529745 2.28488 0.184924L1.62609 0.467265C1.12563 0.681747 0.717392 1.06668 0.473891 1.55368C0.270454 1.96055 0.112776 2.38901 0.0914125 2.84341C0.0240867 4.27539 0.338083 7.80336 4.26778 11.7331C8.19747 15.6628 11.7254 15.9767 13.1574 15.9094C13.6118 15.888 14.0403 15.7304 14.4471 15.5269C14.9341 15.2834 15.3191 14.8752 15.5335 14.3747L15.8159 13.7159C16.0538 13.1608 15.8618 12.515 15.3593 12.18L13.1687 10.7196C12.593 10.3358 11.8152 10.4914 11.4314 11.0671Z" fill="#333333"/>
</svg>
