<?xml version="1.0" ?><svg id="Layer_1" style="enable-background:new 0 0 512 512;" version="1.1" viewBox="0 0 512 512" xml:space="preserve" xmlns="http://www.w3.org/2000/svg" xmlns:xlink="http://www.w3.org/1999/xlink"><style type="text/css">
	.st0{fill:none;stroke:#000000;stroke-width:2;stroke-linecap:round;stroke-linejoin:round;stroke-miterlimit:10;}
	.st1{stroke:#000000;stroke-width:2;stroke-linecap:round;stroke-linejoin:round;stroke-miterlimit:10;}
	.st2{fill:#FFFFFF;}
</style><g><g><path d="M454.49,349.77c-0.01,0-0.02,0-0.03,0l-279.86-0.97c-3.68-0.01-6.84-2.62-7.55-6.24l-42.91-218.29    c-0.45-2.27,0.15-4.61,1.61-6.4c1.47-1.78,3.66-2.82,5.97-2.82h351.95c9.23,0,17.76,4.6,22.83,12.32    c4.94,7.52,5.86,16.89,2.52,25.2l-47.02,191.31C461.15,347.35,458.05,349.77,454.49,349.77z M180.99,333.38l267.45,0.92    l45.71-185.98c0.1-0.42,0.23-0.83,0.41-1.22c1.61-3.74,1.26-7.83-0.97-11.23c-2.23-3.4-5.85-5.35-9.92-5.35H141.12L180.99,333.38z    "/></g><g><path d="M448.91,421.32H187.24c-3.76,0-6.97-2.7-7.61-6.4l-12.61-72.51c-0.73-4.2,2.08-8.21,6.29-8.94    c4.19-0.69,8.2,2.09,8.93,6.29l11.49,66.11h255.17c4.27,0,7.73,3.46,7.73,7.73C456.64,417.86,453.18,421.32,448.91,421.32z"/></g><g><path d="M206.28,449.15c-4.27,0-7.73-3.46-7.73-7.73V413.6c0-4.27,3.46-7.73,7.73-7.73c4.27,0,7.73,3.46,7.73,7.73v27.83    C214.01,445.69,210.56,449.15,206.28,449.15z"/></g><g><path d="M206,496.11c-17.21,0-31.2-14-31.2-31.2c0-17.21,14-31.21,31.2-31.21c17.21,0,31.21,14,31.21,31.21    C237.22,482.11,223.22,496.11,206,496.11z M206,449.15c-8.69,0-15.75,7.07-15.75,15.75s7.06,15.75,15.75,15.75    c8.69,0,15.76-7.06,15.76-15.75S214.69,449.15,206,449.15z"/></g><g><path d="M420.59,449.15c-4.27,0-7.73-3.46-7.73-7.73V413.6c0-4.27,3.46-7.73,7.73-7.73c4.27,0,7.73,3.46,7.73,7.73v27.83    C428.31,445.69,424.86,449.15,420.59,449.15z"/></g><g><path d="M420.31,496.11c-17.21,0-31.2-14-31.2-31.2c0-17.21,14-31.21,31.2-31.21c17.21,0,31.21,14,31.21,31.21    C451.52,482.11,437.52,496.11,420.31,496.11z M420.31,449.15c-8.69,0-15.75,7.07-15.75,15.75s7.06,15.75,15.75,15.75    c8.69,0,15.76-7.06,15.76-15.75S428.99,449.15,420.31,449.15z"/></g><g><path d="M131.71,130.52c-3.45,0-6.59-2.32-7.48-5.82l-19.4-76.2H83.86c-4.27,0-7.73-3.46-7.73-7.73s3.46-7.73,7.73-7.73h26.98    c3.53,0,6.62,2.4,7.49,5.82l20.88,82.02c1.06,4.14-1.44,8.34-5.58,9.39C132.99,130.44,132.35,130.52,131.71,130.52z"/></g><g><path d="M314.2,348.59c-4.23,0-7.68-3.4-7.73-7.64l-2.44-218.08c-0.05-4.27,3.37-7.77,7.64-7.81c0.02,0,0.05,0,0.08,0    c4.23,0,7.68,3.4,7.73,7.64l2.44,218.08c0.05,4.27-3.37,7.77-7.64,7.81C314.26,348.59,314.23,348.59,314.2,348.59z"/></g><g><path d="M480.43,237.81H152.8c-4.27,0-7.73-3.46-7.73-7.73c0-4.27,3.46-7.73,7.73-7.73h327.62c4.27,0,7.73,3.46,7.73,7.73    C488.16,234.35,484.7,237.81,480.43,237.81z"/></g><g><path d="M83.86,65.64H25.88c-13.71,0-24.87-11.16-24.87-24.87s11.16-24.87,24.87-24.87h57.98c4.27,0,7.73,3.46,7.73,7.73v34.29    C91.59,62.18,88.13,65.64,83.86,65.64z M25.88,31.35c-5.19,0-9.42,4.23-9.42,9.42s4.23,9.42,9.42,9.42h50.26V31.35H25.88z"/></g></g></svg>