<svg width="32" height="32" viewBox="0 0 32 32" fill="none" xmlns="http://www.w3.org/2000/svg">
<g clip-path="url(#clip0_161_3537)">
<path d="M0 24L32 24L32 8L-6.99382e-07 8L0 24ZM2 22L2 10L5 10L5 17L7 17L7 10L9 10L9 14L11 14L11 10L13 10L13 17L15 17L15 10L17 10L17 14L19 14L19 10L21 10L21 17L23 17L23 10L25 10L25 14L27 14L27 10L30 10L30 22L2 22Z" fill="#333333"/>
</g>
<defs>
<clipPath id="clip0_161_3537">
<rect width="32" height="32" fill="white" transform="translate(0 32) rotate(-90)"/>
</clipPath>
</defs>
</svg>
